<?xml version="1.0" encoding="us-ascii" standalone="no"?><svg xmlns="http://www.w3.org/2000/svg" xmlns:xlink="http://www.w3.org/1999/xlink" contentStyleType="text/css" height="1343px" preserveAspectRatio="none" style="width:895px;height:1343px;background:#FFFFFF;" version="1.1" viewBox="0 0 895 1343" width="895px" zoomAndPan="magnify"><defs/><g><rect fill="#FFFFFF" height="1215.1249" style="stroke:#181818;stroke-width:1.0;" width="10" x="178" y="72.7739"/><rect fill="#FFFFFF" height="203.6481" style="stroke:#181818;stroke-width:1.0;" width="10" x="520" y="266.1281"/><rect fill="#FFFFFF" height="203.6481" style="stroke:#181818;stroke-width:1.0;" width="10" x="520" y="1052.5447"/><rect fill="#FFFFFF" height="39" style="stroke:#181818;stroke-width:1.0;" width="10" x="865" y="521.4822"/><line style="stroke:#181818;stroke-width:0.5;stroke-dasharray:5.0,5.0;" x1="182.5" x2="182.5" y1="39.0679" y2="1305.8988"/><line style="stroke:#181818;stroke-width:0.5;stroke-dasharray:5.0,5.0;" x1="524.5" x2="524.5" y1="39.0679" y2="1305.8988"/><line style="stroke:#181818;stroke-width:0.5;stroke-dasharray:5.0,5.0;" x1="796.5" x2="796.5" y1="39.0679" y2="1305.8988"/><line style="stroke:#181818;stroke-width:0.5;stroke-dasharray:5.0,5.0;" x1="869.5" x2="869.5" y1="39.0679" y2="1305.8988"/><rect fill="#E2E2F0" height="33.0679" rx="2.5" ry="2.5" style="stroke:#181818;stroke-width:0.5;" width="87" x="139.5" y="5"/><text fill="#000000" font-family="sans-serif" font-size="14" lengthAdjust="spacing" textLength="73" x="146.5" y="26.9659">containerd</text><rect fill="#E2E2F0" height="33.0679" rx="2.5" ry="2.5" style="stroke:#181818;stroke-width:0.5;" width="87" x="139.5" y="1304.8988"/><text fill="#000000" font-family="sans-serif" font-size="14" lengthAdjust="spacing" textLength="73" x="146.5" y="1326.8648">containerd</text><rect fill="#E2E2F0" height="33.0679" rx="2.5" ry="2.5" style="stroke:#181818;stroke-width:0.5;" width="39" x="505.5" y="5"/><text fill="#000000" font-family="sans-serif" font-size="14" lengthAdjust="spacing" textLength="25" x="512.5" y="26.9659">NRI</text><rect fill="#E2E2F0" height="33.0679" rx="2.5" ry="2.5" style="stroke:#181818;stroke-width:0.5;" width="39" x="505.5" y="1304.8988"/><text fill="#000000" font-family="sans-serif" font-size="14" lengthAdjust="spacing" textLength="25" x="512.5" y="1326.8648">NRI</text><rect fill="#E2E2F0" height="33.0679" rx="2.5" ry="2.5" style="stroke:#181818;stroke-width:0.5;" width="87" x="753.5" y="5"/><text fill="#000000" font-family="sans-serif" font-size="14" lengthAdjust="spacing" textLength="73" x="760.5" y="26.9659">NRI plugin</text><rect fill="#E2E2F0" height="33.0679" rx="2.5" ry="2.5" style="stroke:#181818;stroke-width:0.5;" width="87" x="753.5" y="1304.8988"/><text fill="#000000" font-family="sans-serif" font-size="14" lengthAdjust="spacing" textLength="73" x="760.5" y="1326.8648">NRI plugin</text><rect fill="#E2E2F0" height="33.0679" rx="2.5" ry="2.5" style="stroke:#181818;stroke-width:0.5;" width="39" x="850.5" y="5"/><text fill="#000000" font-family="sans-serif" font-size="14" lengthAdjust="spacing" textLength="25" x="857.5" y="26.9659">CNI</text><rect fill="#E2E2F0" height="33.0679" rx="2.5" ry="2.5" style="stroke:#181818;stroke-width:0.5;" width="39" x="850.5" y="1304.8988"/><text fill="#000000" font-family="sans-serif" font-size="14" lengthAdjust="spacing" textLength="25" x="857.5" y="1326.8648">CNI</text><rect fill="#FFFFFF" height="1215.1249" style="stroke:#181818;stroke-width:1.0;" width="10" x="178" y="72.7739"/><rect fill="#FFFFFF" height="203.6481" style="stroke:#181818;stroke-width:1.0;" width="10" x="520" y="266.1281"/><rect fill="#FFFFFF" height="203.6481" style="stroke:#181818;stroke-width:1.0;" width="10" x="520" y="1052.5447"/><rect fill="#FFFFFF" height="39" style="stroke:#181818;stroke-width:1.0;" width="10" x="865" y="521.4822"/><polygon fill="#181818" points="166,68.7739,176,72.7739,166,76.7739,170,72.7739" style="stroke:#181818;stroke-width:1.0;"/><line style="stroke:#181818;stroke-width:1.0;" x1="14" x2="172" y1="72.7739" y2="72.7739"/><text fill="#000000" font-family="sans-serif" font-size="13" lengthAdjust="spacing" textLength="150" x="21" y="66.9649">RunPodSandboxRequest</text><path d="M84,85.7739 L84,130.7739 L282,130.7739 L282,95.7739 L272,85.7739 L84,85.7739 " fill="#FEFFDD" style="stroke:#181818;stroke-width:0.5;"/><path d="M272,85.7739 L272,95.7739 L282,95.7739 L272,85.7739 " fill="#FEFFDD" style="stroke:#181818;stroke-width:0.5;"/><text fill="#000000" font-family="sans-serif" font-size="13" lengthAdjust="spacing" textLength="168" x="90" y="104.6709">criService.RunPodSandbox()</text><text fill="#000000" font-family="sans-serif" font-size="13" lengthAdjust="spacing" textLength="177" x="90" y="122.377">criService.setupPodNetwork()</text><polygon fill="#181818" points="508,262.1281,518,266.1281,508,270.1281,512,266.1281" style="stroke:#181818;stroke-width:1.0;"/><line style="stroke:#181818;stroke-width:1.0;" x1="188" x2="514" y1="266.1281" y2="266.1281"/><text fill="#000000" font-family="sans-serif" font-size="13" lengthAdjust="spacing" textLength="156" x="195" y="154.083">PreSetupNetworkRequest</text><text fill="#000000" font-family="sans-serif" font-size="13" lengthAdjust="spacing" textLength="115" x="195" y="171.789">{  PodSandbox pod</text><text fill="#000000" font-family="sans-serif" font-size="13" lengthAdjust="spacing" textLength="5" x="207" y="189.495">{</text><text fill="#000000" font-family="sans-serif" font-size="13" lengthAdjust="spacing" textLength="72" x="219" y="207.201">name string</text><text fill="#000000" font-family="sans-serif" font-size="13" lengthAdjust="spacing" textLength="116" x="219" y="224.907">networkConf string</text><text fill="#000000" font-family="sans-serif" font-size="13" lengthAdjust="spacing" textLength="19" x="207" y="242.6131">} [ ]</text><text fill="#000000" font-family="sans-serif" font-size="13" lengthAdjust="spacing" textLength="5" x="195" y="260.3191">}</text><polygon fill="#181818" points="785,293.8341,795,297.8341,785,301.8341,789,297.8341" style="stroke:#181818;stroke-width:1.0;"/><line style="stroke:#181818;stroke-width:1.0;" x1="530" x2="791" y1="297.8341" y2="297.8341"/><text fill="#000000" font-family="sans-serif" font-size="13" lengthAdjust="spacing" textLength="216" x="537" y="292.0251">plugin.AdjustPodSandboxNetwork()</text><path d="M748,310.8341 L748,355.8341 L845,355.8341 L845,320.8341 L835,310.8341 L748,310.8341 " fill="#FEFFDD" style="stroke:#181818;stroke-width:0.5;"/><path d="M835,310.8341 L835,320.8341 L845,320.8341 L835,310.8341 " fill="#FEFFDD" style="stroke:#181818;stroke-width:0.5;"/><text fill="#000000" font-family="sans-serif" font-size="13" lengthAdjust="spacing" textLength="58" x="754" y="329.7311">apply NRI</text><text fill="#000000" font-family="sans-serif" font-size="13" lengthAdjust="spacing" textLength="76" x="754" y="347.4371">plugin policy</text><polygon fill="#181818" points="541,363.2461,531,367.2461,541,371.2461,537,367.2461" style="stroke:#181818;stroke-width:1.0;"/><line style="stroke:#181818;stroke-width:1.0;" x1="535" x2="796" y1="367.2461" y2="367.2461"/><polygon fill="#181818" points="199,465.7762,189,469.7762,199,473.7762,195,469.7762" style="stroke:#181818;stroke-width:1.0;"/><line style="stroke:#181818;stroke-width:1.0;" x1="193" x2="524" y1="469.7762" y2="469.7762"/><text fill="#000000" font-family="sans-serif" font-size="13" lengthAdjust="spacing" textLength="165" x="205" y="393.1431">PreSetupNetworkResponse</text><text fill="#000000" font-family="sans-serif" font-size="13" lengthAdjust="spacing" textLength="83" x="205" y="410.8492">{  name string</text><text fill="#000000" font-family="sans-serif" font-size="13" lengthAdjust="spacing" textLength="296" x="217" y="428.5552">capabilities map&lt;string,byte[ ] //json marshalled &gt;</text><text fill="#000000" font-family="sans-serif" font-size="13" lengthAdjust="spacing" textLength="143" x="217" y="446.2612">args map&lt;string,string&gt;</text><text fill="#000000" font-family="sans-serif" font-size="13" lengthAdjust="spacing" textLength="19" x="205" y="463.9672">} [ ]</text><path d="M5,482.7762 L5,509.7762 L361,509.7762 L361,492.7762 L351,482.7762 L5,482.7762 " fill="#FEFFDD" style="stroke:#181818;stroke-width:0.5;"/><path d="M351,482.7762 L351,492.7762 L361,492.7762 L351,482.7762 " fill="#FEFFDD" style="stroke:#181818;stroke-width:0.5;"/><text fill="#000000" font-family="sans-serif" font-size="13" lengthAdjust="spacing" textLength="335" x="11" y="501.6732">criService.config.CniConfgi.NetworkPluginSetupSerially()</text><polygon fill="#181818" points="853,517.4822,863,521.4822,853,525.4822,857,521.4822" style="stroke:#181818;stroke-width:1.0;"/><line style="stroke:#181818;stroke-width:1.0;" x1="188" x2="859" y1="521.4822" y2="521.4822"/><polygon fill="#181818" points="199,556.4822,189,560.4822,199,564.4822,195,560.4822" style="stroke:#181818;stroke-width:1.0;"/><line style="stroke:#181818;stroke-width:1.0;" x1="193" x2="869" y1="560.4822" y2="560.4822"/><polygon fill="#181818" points="508,1048.5447,518,1052.5447,508,1056.5447,512,1052.5447" style="stroke:#181818;stroke-width:1.0;"/><line style="stroke:#181818;stroke-width:1.0;" x1="188" x2="514" y1="1052.5447" y2="1052.5447"/><text fill="#000000" font-family="sans-serif" font-size="13" lengthAdjust="spacing" textLength="163" x="195" y="586.3792">PostSetupNetworkRequest</text><text fill="#000000" font-family="sans-serif" font-size="13" lengthAdjust="spacing" textLength="115" x="195" y="604.0853">{  PodSandbox pod</text><text fill="#000000" font-family="sans-serif" font-size="13" lengthAdjust="spacing" textLength="72" x="207" y="621.7913">prevResult {</text><text fill="#000000" font-family="sans-serif" font-size="13" lengthAdjust="spacing" textLength="72" x="219" y="639.4973">name string</text><text fill="#000000" font-family="sans-serif" font-size="13" lengthAdjust="spacing" textLength="99" x="219" y="657.2033">cniversion string</text><text fill="#000000" font-family="sans-serif" font-size="13" lengthAdjust="spacing" textLength="66" x="219" y="674.9093">interfaces {</text><text fill="#000000" font-family="sans-serif" font-size="13" lengthAdjust="spacing" textLength="72" x="231" y="692.6153">name string</text><text fill="#000000" font-family="sans-serif" font-size="13" lengthAdjust="spacing" textLength="63" x="231" y="710.3214">mac string</text><text fill="#000000" font-family="sans-serif" font-size="13" lengthAdjust="spacing" textLength="90" x="231" y="728.0274">sandbox string</text><text fill="#000000" font-family="sans-serif" font-size="13" lengthAdjust="spacing" textLength="19" x="219" y="745.7334">} [ ]</text><text fill="#000000" font-family="sans-serif" font-size="13" lengthAdjust="spacing" textLength="25" x="219" y="763.4394">ips {</text><text fill="#000000" font-family="sans-serif" font-size="13" lengthAdjust="spacing" textLength="85" x="231" y="781.1454">address string</text><text fill="#000000" font-family="sans-serif" font-size="13" lengthAdjust="spacing" textLength="89" x="231" y="798.8514">gateway string</text><text fill="#000000" font-family="sans-serif" font-size="13" lengthAdjust="spacing" textLength="90" x="231" y="816.5575">interface string</text><text fill="#000000" font-family="sans-serif" font-size="13" lengthAdjust="spacing" textLength="19" x="219" y="834.2635">} [ ]</text><text fill="#000000" font-family="sans-serif" font-size="13" lengthAdjust="spacing" textLength="47" x="219" y="851.9695">routes {</text><text fill="#000000" font-family="sans-serif" font-size="13" lengthAdjust="spacing" textLength="57" x="231" y="869.6755">dst string</text><text fill="#000000" font-family="sans-serif" font-size="13" lengthAdjust="spacing" textLength="56" x="231" y="887.3815">gw string</text><text fill="#000000" font-family="sans-serif" font-size="13" lengthAdjust="spacing" textLength="19" x="219" y="905.0875">} [ ]</text><text fill="#000000" font-family="sans-serif" font-size="13" lengthAdjust="spacing" textLength="30" x="219" y="922.7936">dns {</text><text fill="#000000" font-family="sans-serif" font-size="13" lengthAdjust="spacing" textLength="129" x="231" y="940.4996">nameservers string [ ]</text><text fill="#000000" font-family="sans-serif" font-size="13" lengthAdjust="spacing" textLength="84" x="231" y="958.2056">domain string</text><text fill="#000000" font-family="sans-serif" font-size="13" lengthAdjust="spacing" textLength="91" x="231" y="975.9116">search string [ ]</text><text fill="#000000" font-family="sans-serif" font-size="13" lengthAdjust="spacing" textLength="98" x="231" y="993.6176">options string [ ]</text><text fill="#000000" font-family="sans-serif" font-size="13" lengthAdjust="spacing" textLength="5" x="219" y="1011.3236">}</text><text fill="#000000" font-family="sans-serif" font-size="13" lengthAdjust="spacing" textLength="19" x="204" y="1029.0297">} [ ]</text><text fill="#000000" font-family="sans-serif" font-size="13" lengthAdjust="spacing" textLength="5" x="195" y="1046.7357">}</text><polygon fill="#181818" points="785,1080.2507,795,1084.2507,785,1088.2507,789,1084.2507" style="stroke:#181818;stroke-width:1.0;"/><line style="stroke:#181818;stroke-width:1.0;" x1="530" x2="791" y1="1084.2507" y2="1084.2507"/><text fill="#000000" font-family="sans-serif" font-size="13" lengthAdjust="spacing" textLength="243" x="537" y="1078.4417">plugin.PostAdjustPodSandboxNetwork()</text><path d="M752,1097.2507 L752,1142.2507 L841,1142.2507 L841,1107.2507 L831,1097.2507 L752,1097.2507 " fill="#FEFFDD" style="stroke:#181818;stroke-width:0.5;"/><path d="M831,1097.2507 L831,1107.2507 L841,1107.2507 L831,1097.2507 " fill="#FEFFDD" style="stroke:#181818;stroke-width:0.5;"/><text fill="#000000" font-family="sans-serif" font-size="13" lengthAdjust="spacing" textLength="68" x="758" y="1116.1477">update NRI</text><text fill="#000000" font-family="sans-serif" font-size="13" lengthAdjust="spacing" textLength="64" x="758" y="1133.8537">plugin info</text><polygon fill="#181818" points="541,1149.6627,531,1153.6627,541,1157.6627,537,1153.6627" style="stroke:#181818;stroke-width:1.0;"/><line style="stroke:#181818;stroke-width:1.0;" x1="535" x2="796" y1="1153.6627" y2="1153.6627"/><polygon fill="#181818" points="199,1252.1928,189,1256.1928,199,1260.1928,195,1256.1928" style="stroke:#181818;stroke-width:1.0;"/><line style="stroke:#181818;stroke-width:1.0;" x1="193" x2="524" y1="1256.1928" y2="1256.1928"/><text fill="#000000" font-family="sans-serif" font-size="13" lengthAdjust="spacing" textLength="172" x="205" y="1179.5597">PostSetupNetworkResponse</text><text fill="#000000" font-family="sans-serif" font-size="13" lengthAdjust="spacing" textLength="86" x="205" y="1197.2658">{   prevResult {</text><text fill="#000000" font-family="sans-serif" font-size="13" lengthAdjust="spacing" textLength="9" x="232" y="1214.9718">...</text><text fill="#000000" font-family="sans-serif" font-size="13" font-style="italic" lengthAdjust="spacing" textLength="60" x="244" y="1214.9718">//as above</text><text fill="#000000" font-family="sans-serif" font-size="13" lengthAdjust="spacing" textLength="19" x="217" y="1232.6778">} [ ]</text><text fill="#000000" font-family="sans-serif" font-size="13" lengthAdjust="spacing" textLength="5" x="205" y="1250.3838">}</text><polygon fill="#181818" points="11,1283.8988,1,1287.8988,11,1291.8988,7,1287.8988" style="stroke:#181818;stroke-width:1.0;"/><line style="stroke:#181818;stroke-width:1.0;" x1="5" x2="182" y1="1287.8988" y2="1287.8988"/><text fill="#000000" font-family="sans-serif" font-size="13" lengthAdjust="spacing" textLength="159" x="17" y="1282.0898">RunPodSandboxResponse</text><!--SRC=[bLN1Rjim3BtxAuIUMc2rxq7HOiYfbo18ZlCEYiIuwXnAa-HaHfD_7sKRiUmuowABBL9yV7oYQSEjLq8PZfu9ZPuh12iJ4vaNg_V1_e4Cp9HLeV1Xu9WltfFaxVar0fgnLOLBBTSSvKR_MS7l2fnFkF1gppt4AL7JNk_13iA5LMkmUoKW7I0zFkKO-Hpuof1t0VwWxQ_7fwG7OSI8AC_Oqi8wdEiETMHo_6Ai1sP6onmPhQ_s4HRo7J3dhS8YChOmSutRWU_4Vh2VEPxwAeE2GJGY4eitwrxIx_ApShxdq5VHYp8CvCQKTS3DiRKHxLA9kadpyZoyeqWASarBuOn61uqM5yKARlX6bSehS6p7pKlh_BQfFL2fBCi-dKRoMFV1on8aUsq3kIq60Us3d8r4YOI1GZSRWCnRLQHpL47pGgKT-sLJPrCF7LL4eRveWD2RvsnXSpmUHy84QqGfRAUQI3j_JnSP2tkIjohzpOOIgAXwfqZBiKkX1xlbWYuWGhcA5DQEYqcxwnYEVLtRdZEQYrHSIWlEJQ8M9Dc1rvE-C_bREQsk_6M5qldfb8TRU18dvNBKJwHp5pqCQSBqZYvzMZpWLdnSZTJ6q-rD8v-Qr_k7GsYu-mT4PMG7VfuG2hVwl-V3HPT70-9AJxCqJMaMP1btZ6-8KvQD1kBeWt-ZRF_uLRGPuw3-y5y0]--></g></svg>