<?xml version="1.0" encoding="us-ascii" standalone="no"?><svg xmlns="http://www.w3.org/2000/svg" xmlns:xlink="http://www.w3.org/1999/xlink" contentStyleType="text/css" height="672px" preserveAspectRatio="none" style="width:822px;height:672px;background:#FFFFFF;" version="1.1" viewBox="0 0 822 672" width="822px" zoomAndPan="magnify"><defs/><g><rect fill="#FFFFFF" height="396.8842" style="stroke:#181818;stroke-width:1.0;" width="10" x="216" y="103.7739"/><rect fill="#FFFFFF" height="168.2361" style="stroke:#181818;stroke-width:1.0;" width="10" x="497" y="332.4221"/><line style="stroke:#181818;stroke-width:0.5;stroke-dasharray:5.0,5.0;" x1="56" x2="56" y1="70.0679" y2="591.7762"/><line style="stroke:#181818;stroke-width:0.5;stroke-dasharray:5.0,5.0;" x1="220.5" x2="220.5" y1="70.0679" y2="591.7762"/><line style="stroke:#181818;stroke-width:0.5;stroke-dasharray:5.0,5.0;" x1="501.5" x2="501.5" y1="70.0679" y2="591.7762"/><line style="stroke:#181818;stroke-width:0.5;stroke-dasharray:5.0,5.0;" x1="768.5" x2="768.5" y1="70.0679" y2="591.7762"/><text fill="#000000" font-family="sans-serif" font-size="14" lengthAdjust="spacing" textLength="42" x="32" y="65.9659">config</text><path d="M38,15 C38,5 56,5 56,5 C56,5 74,5 74,15 L74,41 C74,51 56,51 56,51 C56,51 38,51 38,41 L38,15 " fill="#E2E2F0" style="stroke:#181818;stroke-width:1.5;"/><path d="M38,15 C38,25 56,25 56,25 C56,25 74,25 74,15 " fill="none" style="stroke:#181818;stroke-width:1.5;"/><text fill="#000000" font-family="sans-serif" font-size="14" lengthAdjust="spacing" textLength="42" x="32" y="605.7421">config</text><path d="M38,619.8441 C38,609.8441 56,609.8441 56,609.8441 C56,609.8441 74,609.8441 74,619.8441 L74,645.8441 C74,655.8441 56,655.8441 56,655.8441 C56,655.8441 38,655.8441 38,645.8441 L38,619.8441 " fill="#E2E2F0" style="stroke:#181818;stroke-width:1.5;"/><path d="M38,619.8441 C38,629.8441 56,629.8441 56,629.8441 C56,629.8441 74,629.8441 74,619.8441 " fill="none" style="stroke:#181818;stroke-width:1.5;"/><rect fill="#E2E2F0" height="33.0679" rx="2.5" ry="2.5" style="stroke:#181818;stroke-width:0.5;" width="87" x="177.5" y="36"/><text fill="#000000" font-family="sans-serif" font-size="14" lengthAdjust="spacing" textLength="73" x="184.5" y="57.9659">containerd</text><rect fill="#E2E2F0" height="33.0679" rx="2.5" ry="2.5" style="stroke:#181818;stroke-width:0.5;" width="87" x="177.5" y="590.7762"/><text fill="#000000" font-family="sans-serif" font-size="14" lengthAdjust="spacing" textLength="73" x="184.5" y="612.7421">containerd</text><rect fill="#E2E2F0" height="33.0679" rx="2.5" ry="2.5" style="stroke:#181818;stroke-width:0.5;" width="39" x="482.5" y="36"/><text fill="#000000" font-family="sans-serif" font-size="14" lengthAdjust="spacing" textLength="25" x="489.5" y="57.9659">NRI</text><rect fill="#E2E2F0" height="33.0679" rx="2.5" ry="2.5" style="stroke:#181818;stroke-width:0.5;" width="39" x="482.5" y="590.7762"/><text fill="#000000" font-family="sans-serif" font-size="14" lengthAdjust="spacing" textLength="25" x="489.5" y="612.7421">NRI</text><rect fill="#E2E2F0" height="33.0679" rx="2.5" ry="2.5" style="stroke:#181818;stroke-width:0.5;" width="87" x="725.5" y="36"/><text fill="#000000" font-family="sans-serif" font-size="14" lengthAdjust="spacing" textLength="73" x="732.5" y="57.9659">NRI plugin</text><rect fill="#E2E2F0" height="33.0679" rx="2.5" ry="2.5" style="stroke:#181818;stroke-width:0.5;" width="87" x="725.5" y="590.7762"/><text fill="#000000" font-family="sans-serif" font-size="14" lengthAdjust="spacing" textLength="73" x="732.5" y="612.7421">NRI plugin</text><rect fill="#FFFFFF" height="396.8842" style="stroke:#181818;stroke-width:1.0;" width="10" x="216" y="103.7739"/><rect fill="#FFFFFF" height="168.2361" style="stroke:#181818;stroke-width:1.0;" width="10" x="497" y="332.4221"/><polygon fill="#181818" points="67,99.7739,57,103.7739,67,107.7739,63,103.7739" style="stroke:#181818;stroke-width:1.0;"/><line style="stroke:#181818;stroke-width:1.0;stroke-dasharray:2.0,2.0;" x1="61" x2="215" y1="103.7739" y2="103.7739"/><text fill="#000000" font-family="sans-serif" font-size="13" lengthAdjust="spacing" textLength="141" x="73" y="97.9649">syncer.netPlugin.Load()</text><polygon fill="#181818" points="204,113.7739,214,117.7739,204,121.7739,208,117.7739" style="stroke:#181818;stroke-width:1.0;"/><line style="stroke:#181818;stroke-width:1.0;stroke-dasharray:2.0,2.0;" x1="56" x2="210" y1="117.7739" y2="117.7739"/><path d="M5,155.7739 L5,218.7739 L107,218.7739 L107,165.7739 L97,155.7739 L5,155.7739 " fill="#FEFFDD" style="stroke:#181818;stroke-width:0.5;"/><path d="M97,155.7739 L97,165.7739 L107,165.7739 L97,155.7739 " fill="#FEFFDD" style="stroke:#181818;stroke-width:0.5;"/><text fill="#000000" font-family="sans-serif" font-size="13" lengthAdjust="spacing" textLength="50" x="11" y="174.6709">network</text><text fill="#000000" font-family="sans-serif" font-size="13" lengthAdjust="spacing" textLength="81" x="11" y="192.377">configuration</text><text fill="#000000" font-family="sans-serif" font-size="13" lengthAdjust="spacing" textLength="51" x="11" y="210.083">updated</text><polygon fill="#181818" points="204,243.598,214,247.598,204,251.598,208,247.598" style="stroke:#181818;stroke-width:1.0;"/><line style="stroke:#181818;stroke-width:1.0;" x1="56" x2="210" y1="247.598" y2="247.598"/><text fill="#000000" font-family="sans-serif" font-size="13" lengthAdjust="spacing" textLength="108" x="63" y="241.789">syncer.syncLoop()</text><polygon fill="#181818" points="485,328.4221,495,332.4221,485,336.4221,489,332.4221" style="stroke:#181818;stroke-width:1.0;"/><line style="stroke:#181818;stroke-width:1.0;" x1="226" x2="491" y1="332.4221" y2="332.4221"/><text fill="#000000" font-family="sans-serif" font-size="13" lengthAdjust="spacing" textLength="238" x="233" y="273.495">NetworkConfigurationChangedRequest</text><text fill="#000000" font-family="sans-serif" font-size="13" lengthAdjust="spacing" textLength="83" x="233" y="291.201">{  string name</text><text fill="#000000" font-family="sans-serif" font-size="13" lengthAdjust="spacing" textLength="116" x="245" y="308.907">string networkConf</text><text fill="#000000" font-family="sans-serif" font-size="13" lengthAdjust="spacing" textLength="19" x="233" y="326.6131">} [ ]</text><polygon fill="#181818" points="757,360.1281,767,364.1281,757,368.1281,761,364.1281" style="stroke:#181818;stroke-width:1.0;"/><line style="stroke:#181818;stroke-width:1.0;" x1="507" x2="763" y1="364.1281" y2="364.1281"/><text fill="#000000" font-family="sans-serif" font-size="13" lengthAdjust="spacing" textLength="238" x="514" y="358.3191">plugin.NetworkConfigurationChanged()</text><path d="M723,377.1281 L723,404.1281 L815,404.1281 L815,387.1281 L805,377.1281 L723,377.1281 " fill="#FEFFDD" style="stroke:#181818;stroke-width:0.5;"/><path d="M805,377.1281 L805,387.1281 L815,387.1281 L805,377.1281 " fill="#FEFFDD" style="stroke:#181818;stroke-width:0.5;"/><text fill="#000000" font-family="sans-serif" font-size="13" lengthAdjust="spacing" textLength="71" x="729" y="396.0251">apply policy</text><polygon fill="#181818" points="518,411.8341,508,415.8341,518,419.8341,514,415.8341" style="stroke:#181818;stroke-width:1.0;"/><line style="stroke:#181818;stroke-width:1.0;" x1="512" x2="768" y1="415.8341" y2="415.8341"/><polygon fill="#181818" points="232,496.6582,222,500.6582,232,504.6582,228,500.6582" style="stroke:#181818;stroke-width:1.0;"/><line style="stroke:#181818;stroke-width:1.0;" x1="226" x2="501" y1="500.6582" y2="500.6582"/><text fill="#000000" font-family="sans-serif" font-size="13" lengthAdjust="spacing" textLength="247" x="238" y="441.7311">NetworkConfigurationChangedResponse</text><text fill="#000000" font-family="sans-serif" font-size="13" lengthAdjust="spacing" textLength="83" x="238" y="459.4371">{  string name</text><text fill="#000000" font-family="sans-serif" font-size="13" lengthAdjust="spacing" textLength="116" x="250" y="477.1431">string networkConf</text><text fill="#000000" font-family="sans-serif" font-size="13" lengthAdjust="spacing" textLength="19" x="238" y="494.8492">} [ ]</text><path d="M162,513.6582 L162,576.6582 L279,576.6582 L279,523.6582 L269,513.6582 L162,513.6582 " fill="#FEFFDD" style="stroke:#181818;stroke-width:0.5;"/><path d="M269,513.6582 L269,523.6582 L279,523.6582 L269,513.6582 " fill="#FEFFDD" style="stroke:#181818;stroke-width:0.5;"/><text fill="#000000" font-family="sans-serif" font-size="13" lengthAdjust="spacing" textLength="96" x="168" y="532.5552">update network</text><text fill="#000000" font-family="sans-serif" font-size="13" lengthAdjust="spacing" textLength="95" x="168" y="550.2612">configuration in</text><text fill="#000000" font-family="sans-serif" font-size="13" lengthAdjust="spacing" textLength="51" x="168" y="567.9672">memory</text><!--SRC=[bL7BJiCm4BpxArOzmI7vWAZgfIUagaAz4WvBl0IBPEtQJb54-7US9iAsn4ESR8ztPsTs97fyGaVGQ7vMhJ1elMgKGVOpv54nMPd1nzDTzju404mtj8etGYmyi2sAfBy2Dt93jcJozzVAyg1HtjmARBoweATqs4fH5BiKdQP9i0wL-a9sbLj187pJzhNc1HWiUgMvvi78m1gvTj-fcO-3rYRe4F5xBWwMAZWktFkKUV-2t98yqNaWvsj-1t3UAcw1iQUQ0I8Gssl-W0TuZ6xd7Svh2wFIzLNhfVnbT10Rrv0tep7T24PtgXclzDiYJoSn6Rx-DkcCPaV_TIafyvc5zXN14j0F-O4A4VRKQpkcRB7_4m00]--></g></svg>