<?xml version="1.0" encoding="us-ascii" standalone="no"?><svg xmlns="http://www.w3.org/2000/svg" xmlns:xlink="http://www.w3.org/1999/xlink" contentStyleType="text/css" height="481px" preserveAspectRatio="none" style="width:448px;height:481px;background:#FFFFFF;" version="1.1" viewBox="0 0 448 481" width="448px" zoomAndPan="magnify"><defs/><g><rect fill="#FFFFFF" height="233.9421" style="stroke:#181818;stroke-width:1.0;" width="10" x="68.5" y="55.0679"/><rect fill="#FFFFFF" height="115.118" style="stroke:#181818;stroke-width:1.0;" width="10" x="271.5" y="122.186"/><rect fill="#FFFFFF" height="14" style="stroke:#181818;stroke-width:1.0;" width="10" x="271.5" y="356.1281"/><line style="stroke:#181818;stroke-width:0.5;stroke-dasharray:5.0,5.0;" x1="73" x2="73" y1="39.0679" y2="443.5401"/><line style="stroke:#181818;stroke-width:0.5;stroke-dasharray:5.0,5.0;" x1="276" x2="276" y1="39.0679" y2="443.5401"/><line style="stroke:#181818;stroke-width:0.5;stroke-dasharray:5.0,5.0;" x1="349" x2="349" y1="39.0679" y2="443.5401"/><line style="stroke:#181818;stroke-width:0.5;stroke-dasharray:5.0,5.0;" x1="422" x2="422" y1="39.0679" y2="443.5401"/><rect fill="#E2E2F0" height="33.0679" rx="2.5" ry="2.5" style="stroke:#181818;stroke-width:0.5;" width="87" x="30" y="5"/><text fill="#000000" font-family="sans-serif" font-size="14" lengthAdjust="spacing" textLength="73" x="37" y="26.9659">containerd</text><rect fill="#E2E2F0" height="33.0679" rx="2.5" ry="2.5" style="stroke:#181818;stroke-width:0.5;" width="87" x="30" y="442.5401"/><text fill="#000000" font-family="sans-serif" font-size="14" lengthAdjust="spacing" textLength="73" x="37" y="464.5061">containerd</text><rect fill="#E2E2F0" height="33.0679" rx="2.5" ry="2.5" style="stroke:#181818;stroke-width:0.5;" width="39" x="257" y="5"/><text fill="#000000" font-family="sans-serif" font-size="14" lengthAdjust="spacing" textLength="25" x="264" y="26.9659">NRI</text><rect fill="#E2E2F0" height="33.0679" rx="2.5" ry="2.5" style="stroke:#181818;stroke-width:0.5;" width="39" x="257" y="442.5401"/><text fill="#000000" font-family="sans-serif" font-size="14" lengthAdjust="spacing" textLength="25" x="264" y="464.5061">NRI</text><rect fill="#E2E2F0" height="33.0679" rx="2.5" ry="2.5" style="stroke:#181818;stroke-width:0.5;" width="87" x="306" y="5"/><text fill="#000000" font-family="sans-serif" font-size="14" lengthAdjust="spacing" textLength="73" x="313" y="26.9659">NRI plugin</text><rect fill="#E2E2F0" height="33.0679" rx="2.5" ry="2.5" style="stroke:#181818;stroke-width:0.5;" width="87" x="306" y="442.5401"/><text fill="#000000" font-family="sans-serif" font-size="14" lengthAdjust="spacing" textLength="73" x="313" y="464.5061">NRI plugin</text><rect fill="#E2E2F0" height="33.0679" rx="2.5" ry="2.5" style="stroke:#181818;stroke-width:0.5;" width="39" x="403" y="5"/><text fill="#000000" font-family="sans-serif" font-size="14" lengthAdjust="spacing" textLength="25" x="410" y="26.9659">CNI</text><rect fill="#E2E2F0" height="33.0679" rx="2.5" ry="2.5" style="stroke:#181818;stroke-width:0.5;" width="39" x="403" y="442.5401"/><text fill="#000000" font-family="sans-serif" font-size="14" lengthAdjust="spacing" textLength="25" x="410" y="464.5061">CNI</text><rect fill="#FFFFFF" height="233.9421" style="stroke:#181818;stroke-width:1.0;" width="10" x="68.5" y="55.0679"/><rect fill="#FFFFFF" height="115.118" style="stroke:#181818;stroke-width:1.0;" width="10" x="271.5" y="122.186"/><rect fill="#FFFFFF" height="14" style="stroke:#181818;stroke-width:1.0;" width="10" x="271.5" y="356.1281"/><polygon fill="#181818" points="56.5,51.0679,66.5,55.0679,56.5,59.0679,60.5,55.0679" style="stroke:#181818;stroke-width:1.0;"/><line style="stroke:#181818;stroke-width:1.0;" x1="54.5" x2="62.5" y1="55.0679" y2="55.0679"/><polygon fill="#181818" points="259.5,118.186,269.5,122.186,259.5,126.186,263.5,122.186" style="stroke:#181818;stroke-width:1.0;"/><line style="stroke:#181818;stroke-width:1.0;" x1="78.5" x2="265.5" y1="122.186" y2="122.186"/><text fill="#000000" font-family="sans-serif" font-size="13" lengthAdjust="spacing" textLength="174" x="85.5" y="80.9649">PostNetworkDeletedRequest</text><text fill="#000000" font-family="sans-serif" font-size="13" lengthAdjust="spacing" textLength="118" x="85.5" y="98.6709">{   PodSandbox pod</text><text fill="#000000" font-family="sans-serif" font-size="13" lengthAdjust="spacing" textLength="5" x="97.5" y="116.377">}</text><polygon fill="#181818" points="337.5,132.186,347.5,136.186,337.5,140.186,341.5,136.186" style="stroke:#181818;stroke-width:1.0;"/><line style="stroke:#181818;stroke-width:1.0;" x1="281.5" x2="343.5" y1="136.186" y2="136.186"/><path d="M305,149.186 L305,194.186 L394,194.186 L394,159.186 L384,149.186 L305,149.186 " fill="#FEFFDD" style="stroke:#181818;stroke-width:0.5;"/><path d="M384,149.186 L384,159.186 L394,159.186 L384,149.186 " fill="#FEFFDD" style="stroke:#181818;stroke-width:0.5;"/><text fill="#000000" font-family="sans-serif" font-size="13" lengthAdjust="spacing" textLength="68" x="311" y="168.083">update NRI</text><text fill="#000000" font-family="sans-serif" font-size="13" lengthAdjust="spacing" textLength="64" x="311" y="185.789">plugin info</text><polygon fill="#181818" points="292.5,201.598,282.5,205.598,292.5,209.598,288.5,205.598" style="stroke:#181818;stroke-width:1.0;"/><line style="stroke:#181818;stroke-width:1.0;" x1="286.5" x2="348.5" y1="205.598" y2="205.598"/><polygon fill="#181818" points="89.5,233.304,79.5,237.304,89.5,241.304,85.5,237.304" style="stroke:#181818;stroke-width:1.0;"/><line style="stroke:#181818;stroke-width:1.0;" x1="83.5" x2="275.5" y1="237.304" y2="237.304"/><text fill="#000000" font-family="sans-serif" font-size="13" lengthAdjust="spacing" textLength="156" x="95.5" y="231.495">NetworkDeletedResponse</text><path d="M5,250.304 L5,277.304 L143,277.304 L143,260.304 L133,250.304 L5,250.304 " fill="#FEFFDD" style="stroke:#181818;stroke-width:0.5;"/><path d="M133,250.304 L133,260.304 L143,260.304 L133,250.304 " fill="#FEFFDD" style="stroke:#181818;stroke-width:0.5;"/><text fill="#000000" font-family="sans-serif" font-size="13" lengthAdjust="spacing" textLength="117" x="11" y="269.201">delete pod network</text><polygon fill="#181818" points="60.5,285.01,50.5,289.01,60.5,293.01,56.5,289.01" style="stroke:#181818;stroke-width:1.0;"/><line style="stroke:#181818;stroke-width:1.0;" x1="54.5" x2="72.5" y1="289.01" y2="289.01"/><polygon fill="#181818" points="259.5,352.1281,269.5,356.1281,259.5,360.1281,263.5,356.1281" style="stroke:#181818;stroke-width:1.0;"/><line style="stroke:#181818;stroke-width:1.0;" x1="73.5" x2="265.5" y1="356.1281" y2="356.1281"/><text fill="#000000" font-family="sans-serif" font-size="13" lengthAdjust="spacing" textLength="174" x="80.5" y="314.907">PostNetworkDeletedRequest</text><text fill="#000000" font-family="sans-serif" font-size="13" lengthAdjust="spacing" textLength="118" x="80.5" y="332.6131">{   PodSandbox pod</text><text fill="#000000" font-family="sans-serif" font-size="13" lengthAdjust="spacing" textLength="5" x="92.5" y="350.3191">}</text><polygon fill="#181818" points="337.5,366.1281,347.5,370.1281,337.5,374.1281,341.5,370.1281" style="stroke:#181818;stroke-width:1.0;"/><line style="stroke:#181818;stroke-width:1.0;" x1="276.5" x2="343.5" y1="370.1281" y2="370.1281"/><path d="M305,383.1281 L305,428.1281 L394,428.1281 L394,393.1281 L384,383.1281 L305,383.1281 " fill="#FEFFDD" style="stroke:#181818;stroke-width:0.5;"/><path d="M384,383.1281 L384,393.1281 L394,393.1281 L384,383.1281 " fill="#FEFFDD" style="stroke:#181818;stroke-width:0.5;"/><text fill="#000000" font-family="sans-serif" font-size="13" lengthAdjust="spacing" textLength="68" x="311" y="402.0251">update NRI</text><text fill="#000000" font-family="sans-serif" font-size="13" lengthAdjust="spacing" textLength="64" x="311" y="419.7311">plugin info</text><!--SRC=[nP313e8m38RlUuh6Eoz0Z1pqmeKOl7APh9f5qqueQ69yTuTWs4nCl7dR_gxVljRfHcnjdIQ1cacq9MoCSa5Sb7bqN_W0tBaxMbf4XNMHAvKbgn2aQx6z5Wop-GZ-iQUbiELM2fGhDwSDdb7Gb7Zfi9MAxW2-R7QQp9vluDXKv2DupEp1S93oj4YEs1UvnoQAK-YScTeg6aEmT60LlfhKtjpPEOLFqTOnjQWCHaBpvs6lUJKDKm2D69Kjat0x0UOVE_iwnKyhV080]--></g></svg>